<mxfile host="Electron" agent="Mozilla/5.0 (X11; Linux x86_64) AppleWebKit/537.36 (KHTML, like Gecko) draw.io/28.2.5 Chrome/138.0.7204.251 Electron/37.5.1 Safari/537.36" version="28.2.5">
  <diagram name="Page-1" id="S6GNKjCLn1xjdcOYuMnu">
    <mxGraphModel dx="380" dy="730" grid="1" gridSize="10" guides="1" tooltips="1" connect="1" arrows="1" fold="1" page="1" pageScale="1" pageWidth="850" pageHeight="1100" math="0" shadow="0">
      <root>
        <mxCell id="0" />
        <mxCell id="1" parent="0" />
        <mxCell id="sfT8MG1kjLgpnTUyVpo9-5" style="edgeStyle=orthogonalEdgeStyle;rounded=0;orthogonalLoop=1;jettySize=auto;html=1;exitX=0.5;exitY=1;exitDx=0;exitDy=0;entryX=0.5;entryY=0;entryDx=0;entryDy=0;" edge="1" parent="1" source="sfT8MG1kjLgpnTUyVpo9-1" target="sfT8MG1kjLgpnTUyVpo9-2">
          <mxGeometry relative="1" as="geometry" />
        </mxCell>
        <mxCell id="sfT8MG1kjLgpnTUyVpo9-1" value="Start" style="rounded=1;whiteSpace=wrap;html=1;" vertex="1" parent="1">
          <mxGeometry x="40" y="40" width="120" height="40" as="geometry" />
        </mxCell>
        <mxCell id="sfT8MG1kjLgpnTUyVpo9-6" style="edgeStyle=orthogonalEdgeStyle;rounded=0;orthogonalLoop=1;jettySize=auto;html=1;exitX=0.5;exitY=1;exitDx=0;exitDy=0;entryX=0.5;entryY=0;entryDx=0;entryDy=0;" edge="1" parent="1" source="sfT8MG1kjLgpnTUyVpo9-2" target="sfT8MG1kjLgpnTUyVpo9-3">
          <mxGeometry relative="1" as="geometry" />
        </mxCell>
        <mxCell id="sfT8MG1kjLgpnTUyVpo9-2" value="Sends 0b00100100" style="rounded=1;whiteSpace=wrap;html=1;" vertex="1" parent="1">
          <mxGeometry x="40" y="120" width="120" height="40" as="geometry" />
        </mxCell>
        <mxCell id="sfT8MG1kjLgpnTUyVpo9-7" style="edgeStyle=orthogonalEdgeStyle;rounded=0;orthogonalLoop=1;jettySize=auto;html=1;exitX=0.5;exitY=1;exitDx=0;exitDy=0;entryX=0.5;entryY=0;entryDx=0;entryDy=0;" edge="1" parent="1" source="sfT8MG1kjLgpnTUyVpo9-3" target="sfT8MG1kjLgpnTUyVpo9-4">
          <mxGeometry relative="1" as="geometry" />
        </mxCell>
        <mxCell id="sfT8MG1kjLgpnTUyVpo9-9" value="Recieves &quot;ACK&quot;" style="edgeLabel;html=1;align=center;verticalAlign=middle;resizable=0;points=[];" vertex="1" connectable="0" parent="sfT8MG1kjLgpnTUyVpo9-7">
          <mxGeometry x="-0.0833" y="2" relative="1" as="geometry">
            <mxPoint as="offset" />
          </mxGeometry>
        </mxCell>
        <mxCell id="sfT8MG1kjLgpnTUyVpo9-11" style="edgeStyle=orthogonalEdgeStyle;rounded=0;orthogonalLoop=1;jettySize=auto;html=1;exitX=1;exitY=0.5;exitDx=0;exitDy=0;entryX=0;entryY=0.5;entryDx=0;entryDy=0;" edge="1" parent="1" source="sfT8MG1kjLgpnTUyVpo9-3" target="sfT8MG1kjLgpnTUyVpo9-10">
          <mxGeometry relative="1" as="geometry" />
        </mxCell>
        <mxCell id="sfT8MG1kjLgpnTUyVpo9-3" value="Waiting" style="rounded=1;whiteSpace=wrap;html=1;" vertex="1" parent="1">
          <mxGeometry x="40" y="200" width="120" height="40" as="geometry" />
        </mxCell>
        <mxCell id="sfT8MG1kjLgpnTUyVpo9-4" value="Exit" style="rounded=1;whiteSpace=wrap;html=1;" vertex="1" parent="1">
          <mxGeometry x="40" y="280" width="120" height="40" as="geometry" />
        </mxCell>
        <mxCell id="sfT8MG1kjLgpnTUyVpo9-12" style="edgeStyle=orthogonalEdgeStyle;rounded=0;orthogonalLoop=1;jettySize=auto;html=1;exitX=0.5;exitY=0;exitDx=0;exitDy=0;entryX=1;entryY=0.5;entryDx=0;entryDy=0;" edge="1" parent="1" source="sfT8MG1kjLgpnTUyVpo9-10" target="sfT8MG1kjLgpnTUyVpo9-2">
          <mxGeometry relative="1" as="geometry" />
        </mxCell>
        <mxCell id="sfT8MG1kjLgpnTUyVpo9-13" value="Delay" style="edgeLabel;html=1;align=center;verticalAlign=middle;resizable=0;points=[];" vertex="1" connectable="0" parent="sfT8MG1kjLgpnTUyVpo9-12">
          <mxGeometry x="0.025" y="3" relative="1" as="geometry">
            <mxPoint y="7" as="offset" />
          </mxGeometry>
        </mxCell>
        <mxCell id="sfT8MG1kjLgpnTUyVpo9-10" value="Revies !&quot;ACK&quot;" style="rounded=1;whiteSpace=wrap;html=1;" vertex="1" parent="1">
          <mxGeometry x="240" y="200" width="120" height="40" as="geometry" />
        </mxCell>
      </root>
    </mxGraphModel>
  </diagram>
</mxfile>
